<svg width="574" height="210" viewBox="0 0 574 210" fill="none" xmlns="http://www.w3.org/2000/svg">
<path d="M177.642 128.558V141.068H136.776V195H122.876V141.068H11.954V130.782L117.594 0.399987H133.44L29.746 128.558H123.154V81.02H136.776V128.558H177.642Z" fill="#1E1E1E"/>
<ellipse cx="287" cy="161.875" rx="87.5" ry="30.625" stroke="#1E1E1E" stroke-width="12"/>
<path d="M287 157.5V17.5" stroke="#898989" stroke-width="12" stroke-linecap="round"/>
<path d="M286.999 30.625L334.445 54.3475C348.104 61.1773 354.934 64.5922 354.934 70C354.934 75.4078 348.104 78.8227 334.445 85.6525L286.999 109.375" stroke="#898989" stroke-width="12" stroke-linecap="round"/>
<path d="M569.642 128.558V141.068H528.776V195H514.876V141.068H403.954V130.782L509.594 0.399987H525.44L421.746 128.558H515.154V81.02H528.776V128.558H569.642Z" fill="#1E1E1E"/>
</svg>
