<svg width="28" height="28" viewBox="0 0 28 28" fill="none" xmlns="http://www.w3.org/2000/svg">
<g clip-path="url(#clip0_251_202)">
<path fill-rule="evenodd" clip-rule="evenodd" d="M7.11111 0C3.18375 0 0 3.18375 0 7.11111V20.8889C0 24.8162 3.18375 28 7.11111 28H20.8889C24.8162 28 28 24.8162 28 20.8889V7.11111C28 3.18375 24.8162 0 20.8889 0H7.11111ZM4.72534 8.51633C4.87701 15.7963 8.51695 20.1713 14.8986 20.1713H15.2604V16.0063C17.6054 16.2397 19.3786 17.9547 20.0902 20.1713H23.4037C22.4937 16.858 20.1019 15.0263 18.6086 14.3263C20.1019 13.463 22.2019 11.363 22.7036 8.51633H19.6935C19.0402 10.8263 17.1037 12.9263 15.2604 13.1247V8.51633H12.2503V16.5897C10.3836 16.123 8.02701 13.8597 7.92201 8.51633H4.72534Z" fill="#0077FF"/>
</g>
<defs>
<clipPath id="clip0_251_202">
<rect width="28" height="28" fill="white"/>
</clipPath>
</defs>
</svg>
