<?xml version="1.0"?>
<svg xmlns="http://www.w3.org/2000/svg" xmlns:xlink="http://www.w3.org/1999/xlink" version="1.1" xml:space="preserve">
  <defs>

    <symbol id="loader" width="100%" height="100%" viewBox="22 22 44 44">
      <circle cx="44" cy="44" r="20.2" fill="none" stroke="currentColor" stroke-width="4"></circle>
    </symbol>

    <symbol id="car" width="100%" height="100%" viewBox="0 0 24 24">
      <path d="M11.04 3.36011C6.97121 3.36011 4.22996 3.84011 4.22996 3.84011C3.96559 3.88886 3.78934 4.14573 3.83996 4.41011C3.88871 4.67448 4.14559 4.85073 4.40996 4.80011C4.40996 4.80011 4.77371 4.74761 5.27996 4.68011V8.64011L5.27996 9.60011L5.27996 12.1051C4.78496 12.0564 4.29371 12.0301 3.82496 12.0451C3.11621 12.0676 2.48621 12.1782 2.05496 12.6301C1.53559 13.1739 1.28809 13.9482 1.13996 14.7751C0.991836 15.602 0.959961 16.4907 0.959961 17.2801C0.959961 17.5445 1.17559 17.7601 1.43996 17.7601H1.96496C1.93309 17.9157 1.91996 18.0751 1.91996 18.2401C1.91996 19.5601 2.99996 20.6401 4.31996 20.6401C5.47496 20.6401 6.44996 19.8114 6.67496 18.7201H18.285C18.51 19.8114 19.485 20.6401 20.64 20.6401C21.96 20.6401 23.04 19.5601 23.04 18.2401C23.04 18.137 23.0231 18.0395 23.01 17.9401C23.0306 17.882 23.0418 17.822 23.04 17.7601V14.8801C23.04 14.8389 23.0343 14.7995 23.025 14.7601C22.755 13.682 21.6787 12.9807 20.73 12.4351C19.9406 11.9832 19.3106 11.717 19.08 11.6251L15.99 4.57511C17.0418 4.68948 17.67 4.80011 17.67 4.80011C17.9343 4.85073 18.1912 4.67448 18.24 4.41011C18.2906 4.14573 18.1143 3.88886 17.85 3.84011C17.85 3.84011 15.1087 3.36011 11.04 3.36011ZM11.04 4.32011C12.5456 4.32011 13.8581 4.38573 14.91 4.47011C14.9137 4.48511 14.9193 4.50011 14.925 4.51511L18.195 12.0001L17.985 12.4801L14.61 9.12011L15.225 8.50511C15.3806 8.36073 15.4218 8.13198 15.3281 7.94261C15.2362 7.75136 15.0281 7.64636 14.82 7.68011C14.7131 7.69136 14.6118 7.74011 14.535 7.81511L13.68 8.68511C13.5918 8.72636 13.5187 8.79573 13.47 8.88011L12.615 9.73511C12.4237 9.92636 12.4237 10.2339 12.615 10.4251C12.8062 10.6164 13.1137 10.6164 13.305 10.4251L13.92 9.81011L17.565 13.4251L16.485 15.8401H12.48V15.0151C12.48 14.4301 12.0618 13.9745 11.58 13.7851C10.6593 13.4251 9.64871 13.0764 8.60996 12.7801C8.58746 12.7051 7.5 12.5 6.28177 12.2471C6.28177 11.3877 6.28177 9.10705 6.23996 8.70011V4.56011C7.39684 4.44011 9.05059 4.32011 11.04 4.32011ZM6.23996 9.73511C6.23996 12.2401 6.16552 11.9377 6.28177 12.2471C6.57802 13.0327 8.60996 12.7801 7.49996 12.4801C7.07809 12.3807 6.69989 12.3164 6.28177 12.2471L6.23996 9.73511ZM18.96 12.6451C19.2281 12.7539 19.5862 12.8795 20.25 13.2601C21.1125 13.7551 21.9412 14.4845 22.08 14.9851V16.3351C21.6768 16.0276 21.1837 15.8401 20.64 15.8401C19.485 15.8401 18.51 16.6689 18.285 17.7601H6.67496C6.44996 16.6689 5.47496 15.8401 4.31996 15.8401C3.53996 15.8401 2.83871 16.2189 2.39996 16.8001H1.94996C1.96496 16.1757 1.97996 15.5251 2.08496 14.9401C2.21621 14.2051 2.45621 13.592 2.74496 13.2901C2.86496 13.1645 3.25871 13.0239 3.85496 13.0051C6.04871 12.9376 8.94559 13.7739 11.235 14.6701C11.4318 14.747 11.52 14.8726 11.52 15.0151V16.3201C11.52 16.5845 11.7356 16.8001 12 16.8001H16.8C16.9875 16.7982 17.1581 16.6876 17.235 16.5151L18.96 12.6451ZM4.31996 16.8001C5.12059 16.8001 5.75996 17.4395 5.75996 18.2401C5.75996 19.0407 5.12059 19.6801 4.31996 19.6801C3.51934 19.6801 2.87996 19.0407 2.87996 18.2401C2.87996 17.4395 3.51934 16.8001 4.31996 16.8001ZM20.64 16.8001C21.4406 16.8001 22.08 17.4395 22.08 18.2401C22.08 19.0407 21.4406 19.6801 20.64 19.6801C19.8393 19.6801 19.2 19.0407 19.2 18.2401C19.2 17.4395 19.8393 16.8001 20.64 16.8001Z" fill="currentColor" />
    </symbol>

    <symbol id="golf" width="100%" height="100%" viewBox="0 0 24 24">
      <ellipse cx="12" cy="18.5" rx="10" ry="3.5" fill="transparent" stroke="currentColor" />
      <path d="M12 18V2" fill="transparent" stroke="currentColor" stroke-linecap="round" />
      <path d="M12 3.5L17.4224 6.21114C18.9835 6.99169 19.764 7.38196 19.764 8C19.764 8.61804 18.9835 9.00831 17.4224 9.78886L12 12.5" fill="transparent" stroke="currentColor" stroke-linecap="round" />
    </symbol>

    <symbol id="club" width="100%" height="100%" viewBox="0 0 24 24">
      <path d="M12 14.25C15.3137 14.25 18 11.5637 18 8.25C18 4.93629 15.3137 2.25 12 2.25C8.68629 2.25 6 4.93629 6 8.25C6 11.5637 8.68629 14.25 12 14.25Z" fill="transparent" stroke="currentColor" stroke-miterlimit="10" stroke-linecap="round" stroke-linejoin="round" />
      <path d="M6.0752 15C7.6502 16.425 9.7502 17.25 12.0002 17.25C14.2502 17.25 16.3502 16.425 17.9252 15" fill="transparent" stroke="currentColor" stroke-miterlimit="10" stroke-linecap="round" stroke-linejoin="round" />
      <path d="M12 21.75V17.25" fill="transparent" stroke="currentColor" stroke-miterlimit="10" stroke-linecap="round" stroke-linejoin="round" />
      <path d="M12.525 8.47505C12.525 8.47505 12.45 8.40005 12.375 8.40005C12.375 8.40005 12.3 8.32505 12.225 8.32505C12.15 8.32505 12.15 8.32505 12.075 8.25005C11.85 8.17505 11.55 8.25005 11.4 8.47505C11.325 8.62505 11.25 8.77505 11.25 9.00005C11.25 9.22505 11.325 9.37505 11.475 9.52505C11.625 9.67505 11.775 9.75005 12 9.75005C12.075 9.75005 12.225 9.75005 12.3 9.67505C12.375 9.60005 12.45 9.60005 12.525 9.52505C12.675 9.37505 12.75 9.22505 12.75 9.00005C12.75 8.77505 12.675 8.62505 12.525 8.47505Z" fill="currentColor" />
      <path d="M9.525 8.47505C9.525 8.47505 9.45 8.40005 9.375 8.40005C9.375 8.40005 9.3 8.32505 9.225 8.32505C9.15 8.32505 9.15 8.32505 9.075 8.25005C8.85 8.17505 8.55 8.25005 8.4 8.47505C8.325 8.62505 8.25 8.77505 8.25 9.00005C8.25 9.22505 8.325 9.37505 8.475 9.52505C8.625 9.67505 8.775 9.75005 9 9.75005C9.075 9.75005 9.225 9.75005 9.3 9.67505C9.375 9.60005 9.45 9.60005 9.525 9.52505C9.675 9.37505 9.75 9.22505 9.75 9.00005C9.75 8.77505 9.675 8.62505 9.525 8.47505Z" fill="currentColor" />
      <path d="M11.025 10.725C11.025 10.725 10.95 10.65 10.875 10.65C10.875 10.65 10.8 10.575 10.725 10.575C10.65 10.575 10.65 10.575 10.575 10.5C10.35 10.425 10.05 10.5 9.9 10.725C9.825 10.875 9.75 11.025 9.75 11.25C9.75 11.475 9.825 11.625 9.975 11.775C10.125 11.925 10.275 12 10.5 12C10.575 12 10.725 12 10.8 11.925C10.875 11.85 10.95 11.85 11.025 11.775C11.175 11.625 11.25 11.475 11.25 11.25C11.25 11.025 11.175 10.875 11.025 10.725Z" fill="currentColor" />
      <path d="M14.025 10.725C14.025 10.725 13.95 10.65 13.875 10.65C13.875 10.65 13.8 10.575 13.725 10.575C13.65 10.575 13.65 10.575 13.575 10.5C13.35 10.425 13.05 10.5 12.9 10.725C12.825 10.875 12.75 11.025 12.75 11.25C12.75 11.475 12.825 11.625 12.975 11.775C13.125 11.925 13.275 12 13.5 12C13.575 12 13.725 12 13.8 11.925C13.875 11.85 13.95 11.85 14.025 11.775C14.175 11.625 14.25 11.475 14.25 11.25C14.25 11.025 14.175 10.875 14.025 10.725Z" fill="currentColor" />
      <path d="M15.525 8.47505C15.525 8.47505 15.45 8.40005 15.375 8.40005C15.375 8.40005 15.3 8.32505 15.225 8.32505C15.15 8.32505 15.15 8.32505 15.075 8.25005C14.85 8.17505 14.55 8.25005 14.4 8.47505C14.325 8.62505 14.25 8.77505 14.25 9.00005C14.25 9.22505 14.325 9.37505 14.475 9.52505C14.625 9.67505 14.775 9.75005 15 9.75005C15.075 9.75005 15.225 9.75005 15.3 9.67505C15.375 9.60005 15.45 9.60005 15.525 9.52505C15.675 9.37505 15.75 9.22505 15.75 9.00005C15.75 8.77505 15.675 8.62505 15.525 8.47505Z" fill="currentColor" />
    </symbol>

    <symbol id="tournament" width="100%" height="100%" viewBox="0 0 24 24">
      <path d="M3.89067 20.2446C3.20649 20.2446 2.26708 19.9542 1.14498 18.8696C0.956178 18.687 0.951152 18.386 1.13357 18.1974C1.31627 18.0087 1.61699 18.0037 1.8058 18.186C3.38144 19.7094 4.24125 19.3709 4.49742 19.1429C9.52221 13.1635 14.0097 6.85332 14.0545 6.7903C14.1606 6.64088 14.3427 6.56522 14.5234 6.59701C14.7037 6.62811 14.8502 6.76028 14.8998 6.93659L15.9609 10.7072C16.0319 10.9599 15.8848 11.2226 15.6322 11.2936C15.3796 11.3645 15.1168 11.2176 15.0456 10.9648L14.2516 8.14344C12.8704 10.0479 5.14629 19.8434 5.12483 19.8617C4.76202 20.1744 4.66015 20.2309 3.89067 20.2446Z" fill="currentColor" />
      <path d="M22.0702 22.5973C17.8164 19.2682 17.2123 16.5476 17.1887 16.4333C17.1354 16.1762 17.3007 15.9246 17.558 15.8714C17.814 15.8188 18.0649 15.9825 18.1193 16.238C18.1286 16.2798 18.7248 18.7718 22.6561 21.8486C22.8627 22.0103 22.9118 22.3196 22.7375 22.516C22.4652 22.8229 22.1572 22.6655 22.0702 22.5973Z" fill="currentColor" />
      <path d="M12.5169 22.8193C12.4853 22.7079 11.5747 20.1225 12.7181 17.7886C13.3876 16.4221 14.609 15.441 16.3487 14.8723C19.3531 13.8901 18.6815 11.0706 18.6213 10.8424L18.0941 9.2516C17.9561 10.1763 17.6381 11.1496 16.9999 12.0072C15.8325 13.5755 13.8694 14.3925 11.1647 14.4354C10.8994 14.4399 10.686 14.2301 10.6817 13.9678C10.6776 13.7052 10.8871 13.4891 11.1495 13.4846C13.5411 13.4467 15.2519 12.76 16.2341 11.4435C17.8871 9.22783 16.9798 5.89318 16.9704 5.85977C16.9007 5.61119 17.0421 5.35217 17.2893 5.27664C17.5361 5.20153 17.7983 5.33614 17.8795 5.58158L19.5284 10.5565C19.5311 10.5644 19.5332 10.5721 19.5357 10.5802C19.9061 11.9294 19.7782 14.7515 16.6441 15.7762C15.1609 16.2609 14.1284 17.0768 13.5754 18.2008C12.6067 20.169 13.4044 22.4766 13.4128 22.4997C13.5005 22.7468 13.371 23.0187 13.1242 23.1067C13.0711 23.1255 12.6344 23.2305 12.5169 22.8193Z" fill="currentColor" />
      <path d="M15.4101 5.43732C16.6334 5.43732 17.6287 4.44195 17.6287 3.21866C17.6287 1.99537 16.6334 1 15.4101 1C14.1865 1 13.1914 1.99537 13.1914 3.21866C13.1914 4.44195 14.1865 5.43732 15.4101 5.43732ZM15.4101 1.9606C16.1035 1.9606 16.6681 2.52484 16.6681 3.21866C16.6681 3.91221 16.1038 4.47673 15.4101 4.47673C14.7164 4.47673 14.1519 3.91235 14.1519 3.21866C14.1519 2.52484 14.7161 1.9606 15.4101 1.9606Z" fill="currentColor" />
    </symbol>

    <symbol id="glass" width="100%" height="100%" viewBox="0 0 24 24">
      <path d="M12 14.5714L20.5162 5.86382C21.5624 4.79408 20.7999 3 19.2991 3H4.70095C3.20008 3 2.43759 4.79409 3.48381 5.86382L12 14.5714ZM12 14.5714V21M12 21H16.2439M12 21H7.7561M7.47318 9.75H16.5268" fill="transparent" stroke="currentColor" stroke-linecap="round" />
    </symbol>

    <symbol id="chef" width="100%" height="100%" viewBox="0 0 24 24">
      <path d="M19 18H19.5H19ZM5 14.584H5.5C5.5 14.3852 5.3823 14.2053 5.20019 14.1258L5 14.584ZM19 14.584L18.7998 14.1258C18.6177 14.2053 18.5 14.3852 18.5 14.584H19ZM16 7C16 7.27614 16.2239 7.5 16.5 7.5C16.7761 7.5 17 7.27614 17 7H16ZM7 7C7 7.27614 7.22386 7.5 7.5 7.5C7.77614 7.5 8 7.27614 8 7H7ZM7 4.5C3.96243 4.5 1.5 6.96243 1.5 10H2.5C2.5 7.51472 4.51472 5.5 7 5.5V4.5ZM17 5.5C19.4853 5.5 21.5 7.51472 21.5 10H22.5C22.5 6.96243 20.0376 4.5 17 4.5V5.5ZM15 21.5H9V22.5H15V21.5ZM9 21.5C8.04306 21.5 7.37565 21.4989 6.87208 21.4312C6.3829 21.3655 6.12385 21.2452 5.93934 21.0607L5.23223 21.7678C5.63351 22.169 6.13876 22.3416 6.73883 22.4223C7.32452 22.5011 8.07133 22.5 9 22.5V21.5ZM4.5 18C4.5 18.9287 4.49894 19.6755 4.57768 20.2612C4.65836 20.8612 4.83096 21.3665 5.23223 21.7678L5.93934 21.0607C5.75483 20.8762 5.63453 20.6171 5.56876 20.1279C5.50106 19.6244 5.5 18.9569 5.5 18H4.5ZM18.5 18C18.5 18.9569 18.4989 19.6244 18.4312 20.1279C18.3655 20.6171 18.2452 20.8762 18.0607 21.0607L18.7678 21.7678C19.169 21.3665 19.3416 20.8612 19.4223 20.2612C19.5011 19.6755 19.5 18.9287 19.5 18H18.5ZM15 22.5C15.9287 22.5 16.6755 22.5011 17.2612 22.4223C17.8612 22.3416 18.3665 22.169 18.7678 21.7678L18.0607 21.0607C17.8762 21.2452 17.6171 21.3655 17.1279 21.4312C16.6244 21.4989 15.9569 21.5 15 21.5V22.5ZM7 5.5C7.22597 5.5 7.44775 5.51662 7.66425 5.54862L7.81047 4.55936C7.54571 4.52023 7.27507 4.5 7 4.5V5.5ZM12 1.5C9.79984 1.5 7.93282 2.92075 7.26385 4.89341L8.21088 5.21457C8.74641 3.63536 10.2413 2.5 12 2.5V1.5ZM7.26385 4.89341C7.09264 5.39829 7 5.93884 7 6.5H8C8 6.04949 8.07428 5.61735 8.21088 5.21457L7.26385 4.89341ZM17 4.5C16.7249 4.5 16.4543 4.52023 16.1895 4.55936L16.3357 5.54862C16.5522 5.51662 16.774 5.5 17 5.5V4.5ZM12 2.5C13.7587 2.5 15.2536 3.63536 15.7891 5.21457L16.7362 4.89341C16.0672 2.92075 14.2002 1.5 12 1.5V2.5ZM15.7891 5.21457C15.9257 5.61735 16 6.04949 16 6.5H17C17 5.93884 16.9074 5.39829 16.7362 4.89341L15.7891 5.21457ZM5.5 18V14.584H4.5V18H5.5ZM5.20019 14.1258C3.60983 13.4309 2.5 11.8445 2.5 10H1.5C1.5 12.2561 2.85836 14.1939 4.79981 15.0421L5.20019 14.1258ZM18.5 14.584L18.5 18H19.5L19.5 14.584H18.5ZM21.5 10C21.5 11.8445 20.3902 13.4309 18.7998 14.1258L19.2002 15.0421C21.1416 14.1939 22.5 12.2561 22.5 10H21.5ZM16 6.5V7H17V6.5H16ZM7 6.5V7H8V6.5H7Z" fill="currentColor" />
      <path d="M11.0429 13.669L10.7471 14.0722H10.7471L11.0429 13.669ZM12 9.99481L11.6542 10.356C11.8476 10.5411 12.1524 10.5411 12.3458 10.356L12 9.99481ZM12.9571 13.669L12.6614 13.2659L12.9571 13.669ZM12 14.131L12 13.631H12L12 14.131ZM11.3386 13.2659C10.9137 12.9541 10.4364 12.5584 10.0704 12.1351C9.69122 11.6967 9.5 11.3073 9.5 11.0002H8.5C8.5 11.6775 8.89121 12.3004 9.31399 12.7893C9.74984 13.2932 10.294 13.7398 10.7471 14.0722L11.3386 13.2659ZM9.5 11.0002C9.5 10.3373 9.81255 9.97869 10.1592 9.85718C10.5198 9.73077 11.0788 9.80506 11.6542 10.356L12.3458 9.63367C11.5712 8.89201 10.6303 8.63238 9.82836 8.91349C9.01247 9.1995 8.5 9.98987 8.5 11.0002H9.5ZM13.2529 14.0722C13.706 13.7398 14.2502 13.2932 14.686 12.7893C15.1088 12.3004 15.5 11.6775 15.5 11.0002H14.5C14.5 11.3073 14.3088 11.6967 13.9296 12.1351C13.5636 12.5584 13.0863 12.9541 12.6614 13.2659L13.2529 14.0722ZM15.5 11.0002C15.5 9.98986 14.9875 9.19949 14.1716 8.91348C13.3697 8.63238 12.4288 8.89201 11.6542 9.63367L12.3458 10.356C12.9212 9.80506 13.4802 9.73076 13.8408 9.85718C14.1875 9.97869 14.5 10.3373 14.5 11.0002H15.5ZM10.7471 14.0722C11.1327 14.3551 11.4786 14.631 12 14.631L12 13.631C11.8664 13.631 11.7925 13.5989 11.3386 13.2659L10.7471 14.0722ZM12.6614 13.2659C12.2075 13.5989 12.1336 13.631 12 13.631L12 14.631C12.5214 14.631 12.8673 14.3551 13.2529 14.0722L12.6614 13.2659Z" fill="currentColor" />
      <path d="M5 18H19" fill="transparent" stroke="currentColor" stroke-linecap="round" stroke-linejoin="round" />
    </symbol>

    <symbol id="calendar" width="100%" height="100%" viewBox="0 0 24 24">
      <path d="M2 12C2 8.22876 2 6.34315 3.17157 5.17157C4.34315 4 6.22876 4 10 4H14C17.7712 4 19.6569 4 20.8284 5.17157C22 6.34315 22 8.22876 22 12V14C22 17.7712 22 19.6569 20.8284 20.8284C19.6569 22 17.7712 22 14 22H10C6.22876 22 4.34315 22 3.17157 20.8284C2 19.6569 2 17.7712 2 14V12Z" fill="transparent" stroke="currentColor" stroke-width="1.5" />
      <path d="M7 4V2.5" fill="transparent" stroke="currentColor" stroke-width="1.5" stroke-linecap="round" />
      <path d="M17 4V2.5" fill="transparent" stroke="currentColor" stroke-width="1.5" stroke-linecap="round" />
      <path d="M2.5 9H21.5" fill="transparent" stroke="currentColor" stroke-width="1.5" stroke-linecap="round" />
      <path d="M18 17C18 17.5523 17.5523 18 17 18C16.4477 18 16 17.5523 16 17C16 16.4477 16.4477 16 17 16C17.5523 16 18 16.4477 18 17Z" fill="currentColor" />
      <path d="M18 13C18 13.5523 17.5523 14 17 14C16.4477 14 16 13.5523 16 13C16 12.4477 16.4477 12 17 12C17.5523 12 18 12.4477 18 13Z" fill="currentColor" />
      <path d="M13 17C13 17.5523 12.5523 18 12 18C11.4477 18 11 17.5523 11 17C11 16.4477 11.4477 16 12 16C12.5523 16 13 16.4477 13 17Z" fill="currentColor" />
      <path d="M13 13C13 13.5523 12.5523 14 12 14C11.4477 14 11 13.5523 11 13C11 12.4477 11.4477 12 12 12C12.5523 12 13 12.4477 13 13Z" fill="currentColor" />
      <path d="M8 17C8 17.5523 7.55228 18 7 18C6.44772 18 6 17.5523 6 17C6 16.4477 6.44772 16 7 16C7.55228 16 8 16.4477 8 17Z" fill="currentColor" />
      <path d="M8 13C8 13.5523 7.55228 14 7 14C6.44772 14 6 13.5523 6 13C6 12.4477 6.44772 12 7 12C7.55228 12 8 12.4477 8 13Z" fill="currentColor" />
    </symbol>

    <symbol id="lines" width="100%" height="100%" viewBox="0 0 1858 1858">
      <path fill-rule="evenodd" clip-rule="evenodd" d="M1420.68 1474.29C1334.91 1521.59 1205.59 1481.24 1091.31 1478.01C974.079 1474.7 845.948 1563.14 743.588 1455.19C625.611 1330.76 782.869 1177.46 678.986 1043.16C546.883 872.378 207.619 883.197 159.574 700.188C116.557 536.335 421.509 634.373 568.43 622.044C641.676 615.898 723.758 648.228 798.948 646.534C882.782 644.646 941.581 597.51 1030.72 611.631C1190.85 636.997 1378.35 617.879 1512.25 759.531C1638.46 893.05 1607.18 1067.56 1589.81 1203.09C1574.42 1323.28 1517.05 1421.15 1420.68 1474.29Z" fill="transparent" stroke="currentColor" />
      <path fill-rule="evenodd" clip-rule="evenodd" d="M1378.02 1520.14C1292.25 1567.44 1162.93 1527.09 1048.65 1523.86C931.42 1520.55 803.289 1608.99 700.929 1501.04C582.952 1376.62 740.21 1223.31 636.327 1089.01C504.223 918.229 164.96 929.048 116.914 746.039C73.8977 582.186 378.85 680.224 525.771 667.895C599.017 661.749 681.099 694.079 756.289 692.385C840.123 690.497 898.922 643.361 988.06 657.482C1148.19 682.848 1335.69 663.73 1469.59 805.382C1595.8 938.901 1564.52 1113.42 1547.15 1248.94C1531.76 1369.13 1474.39 1467 1378.02 1520.14Z" fill="transparent" stroke="currentColor" />
      <path fill-rule="evenodd" clip-rule="evenodd" d="M1444.59 1450.38C1358.83 1497.68 1229.5 1457.32 1115.23 1454.1C997.991 1450.79 869.86 1539.23 767.499 1431.27C649.523 1306.85 806.781 1153.54 702.898 1019.25C570.794 848.466 231.531 859.285 183.485 676.276C140.469 512.423 445.421 610.462 592.342 598.132C665.588 591.986 747.67 624.316 822.86 622.622C906.694 620.734 965.493 573.598 1054.63 587.719C1214.76 613.085 1402.26 593.967 1536.16 735.619C1662.37 869.138 1631.09 1043.65 1613.73 1179.18C1598.33 1299.36 1540.96 1397.23 1444.59 1450.38Z" fill="transparent" stroke="currentColor" />
      <path fill-rule="evenodd" clip-rule="evenodd" d="M1432.64 1462.34C1346.87 1509.64 1217.55 1469.28 1103.27 1466.06C986.036 1462.75 857.905 1551.18 755.544 1443.23C637.567 1318.81 794.826 1165.5 690.942 1031.2C558.839 860.422 219.576 871.24 171.53 688.232C128.514 524.378 433.466 622.417 580.387 610.088C653.632 603.942 735.715 636.272 810.905 634.578C894.739 632.69 953.537 585.554 1042.68 599.675C1202.8 625.041 1390.3 605.922 1524.2 747.574C1650.42 881.094 1619.13 1055.61 1601.77 1191.14C1586.37 1311.32 1529 1409.19 1432.64 1462.34Z" fill="transparent" stroke="currentColor" />
    </symbol>

    <symbol id="world" width="100%" height="100%" viewBox="0 0 16 16">
      <path d="M15.5545 10.6318C15.8426 9.80722 15.9998 8.92167 15.9998 7.99996C15.9998 7.07825 15.8426 6.19271 15.5545 5.36809C15.5475 5.34332 15.5391 5.31916 15.5291 5.29592C14.4179 2.21146 11.4625 0 7.99989 0C4.53729 0 1.5818 2.21146 0.470716 5.29592C0.460625 5.31924 0.452215 5.34332 0.445258 5.36809C0.157186 6.19271 0 7.07825 0 7.99996C0 8.92167 0.157186 9.80722 0.445258 10.6318C0.452291 10.6566 0.460625 10.6808 0.470716 10.704C1.58187 13.7885 4.53729 15.9999 7.99989 15.9999C11.4625 15.9999 14.4179 13.7885 15.5291 10.704C15.5391 10.6808 15.5475 10.6567 15.5545 10.6318ZM7.99989 14.8532C7.69522 14.8532 7.20402 14.3018 6.79347 13.07C6.5953 12.4756 6.43667 11.7923 6.32107 11.049H9.6787C9.5631 11.7923 9.40447 12.4756 9.20638 13.07C8.79575 14.3018 8.30455 14.8532 7.99989 14.8532ZM6.18193 9.90217C6.12681 9.2907 6.09768 8.65279 6.09768 7.99996C6.09768 7.34714 6.12681 6.70922 6.18193 6.09775H9.81777C9.87289 6.70922 9.90202 7.34714 9.90202 7.99996C9.90202 8.65279 9.87289 9.2907 9.81777 9.90217H6.18193ZM1.14671 8.00004C1.14671 7.34026 1.24067 6.70203 1.41551 6.09783H5.0317C4.97811 6.72191 4.95089 7.36151 4.95089 8.00004C4.95089 8.63857 4.97803 9.27817 5.0317 9.90225H1.41551C1.24067 9.29797 1.14671 8.65982 1.14671 8.00004ZM7.99989 1.14678C8.30455 1.14678 8.79583 1.69816 9.20638 2.92996C9.40447 3.52437 9.56318 4.2077 9.6787 4.95097H6.32099C6.43659 4.20763 6.59523 3.52437 6.79339 2.92996C7.20402 1.69816 7.69522 1.14678 7.99989 1.14678ZM10.968 6.09783H14.5842C14.759 6.70203 14.853 7.34026 14.853 8.00004C14.853 8.65982 14.759 9.29804 14.5842 9.90225H10.968C11.0216 9.27817 11.0488 8.63857 11.0488 8.00004C11.0488 7.36151 11.0216 6.72191 10.968 6.09783ZM14.1361 4.95105H10.8364C10.6324 3.54456 10.2825 2.28271 9.79162 1.38501C11.6949 1.90098 13.2717 3.21833 14.1361 4.95105ZM6.20807 1.38493C5.71717 2.28263 5.36725 3.54448 5.16328 4.95105H1.8636C2.72804 3.21833 4.3048 1.90098 6.20807 1.38493ZM1.8636 11.049H5.16328C5.36725 12.4554 5.71717 13.7173 6.20807 14.6151C4.3048 14.099 2.72804 12.7817 1.8636 11.049ZM9.79162 14.6151C10.2825 13.7174 10.6324 12.4555 10.8364 11.049H14.1361C13.2717 12.7817 11.6949 14.099 9.79162 14.6151Z" fill="currentColor" />
    </symbol>

  </defs>
</svg>